<?xml version="1.0" standalone="no"?>
<!DOCTYPE svg PUBLIC "-//W3C//DTD SVG 20010904//EN"
 "http://www.w3.org/TR/2001/REC-SVG-20010904/DTD/svg10.dtd">
<svg version="1.0" xmlns="http://www.w3.org/2000/svg"
 width="642.000000pt" height="642.000000pt" viewBox="0 0 642.000000 642.000000"
 preserveAspectRatio="xMidYMid meet">
<metadata>
Created by potrace 1.14, written by Peter Selinger 2001-2017
</metadata>
<g transform="translate(0.000000,642.000000) scale(0.100000,-0.100000)"
fill="#000000" stroke="none">
<path d="M4246 6272 c-3 -5 -21 -8 -41 -5 -31 3 -38 -1 -55 -29 -12 -18 -23
-45 -27 -60 -3 -15 -14 -35 -24 -44 -11 -9 -19 -27 -19 -39 0 -12 -9 -30 -20
-40 -11 -10 -17 -21 -15 -26 3 -4 0 -11 -8 -16 -11 -7 -117 -167 -117 -178 0
-2 -12 -29 -26 -59 -16 -35 -31 -53 -39 -50 -13 5 -55 -44 -55 -65 0 -5 -6
-14 -13 -18 -15 -9 -57 -79 -57 -95 0 -6 -7 -19 -15 -29 -22 -23 -10 -69 17
-69 19 0 19 -2 6 -22 -9 -13 -20 -23 -26 -23 -19 0 -27 -16 -12 -25 12 -8 12
-10 -3 -16 -9 -3 -17 -13 -17 -21 0 -9 -6 -13 -14 -10 -29 11 -77 -83 -55
-109 6 -7 8 -22 4 -34 -7 -22 -25 -28 -25 -7 0 13 -39 -32 -40 -47 0 -5 8 -15
18 -22 16 -13 16 -13 -1 -14 -30 0 -58 -59 -52 -110 5 -54 -29 -142 -51 -133
-17 6 -20 -32 -4 -42 7 -4 3 -20 -9 -43 -11 -20 -31 -61 -45 -91 -20 -41 -27
-50 -32 -36 -7 18 -52 -82 -100 -225 -14 -41 -29 -79 -35 -84 -5 -6 -9 -16 -9
-24 0 -23 -32 -82 -41 -76 -12 7 -11 -3 2 -28 9 -16 5 -31 -20 -77 -32 -60
-121 -312 -121 -342 0 -11 -16 -57 -35 -103 -19 -47 -40 -109 -46 -138 -7 -29
-22 -69 -35 -88 -14 -19 -24 -49 -24 -68 0 -18 -5 -42 -10 -52 -6 -10 -12 -43
-15 -72 -7 -71 -32 -157 -56 -186 -10 -14 -19 -30 -19 -36 0 -6 -7 -24 -16
-41 -14 -27 -14 -31 1 -41 11 -8 15 -20 10 -33 -3 -12 -8 -33 -11 -47 -3 -15
-16 -53 -29 -85 -14 -32 -24 -62 -23 -66 6 -17 -26 -73 -41 -73 -14 -1 -14 -2
2 -14 23 -17 22 -38 -3 -59 -11 -9 -20 -28 -20 -41 0 -13 -9 -45 -20 -70 -11
-27 -15 -48 -10 -51 14 -9 12 -50 -9 -134 -14 -60 -22 -76 -44 -88 -26 -13
-35 -41 -20 -57 4 -4 8 -24 8 -46 1 -33 -3 -40 -23 -45 -18 -4 -21 -9 -13 -19
6 -7 8 -16 4 -19 -3 -4 -6 -20 -5 -37 0 -17 -3 -28 -8 -25 -18 11 -21 -17 -5
-41 16 -25 16 -28 -13 -87 -37 -74 -60 -136 -74 -197 -6 -25 -17 -49 -25 -53
-10 -6 -11 -12 -4 -21 7 -9 5 -20 -7 -37 -9 -13 -18 -35 -20 -49 -1 -14 -7
-37 -12 -52 -4 -15 -6 -36 -3 -46 3 -11 -2 -35 -11 -54 -19 -40 -46 -152 -46
-191 0 -16 -4 -26 -8 -23 -5 3 -8 -4 -8 -16 1 -33 -21 -32 -32 2 -8 21 -8 30
0 30 7 0 7 4 1 13 -12 14 -31 89 -35 132 -2 17 -6 32 -9 35 -4 3 -9 28 -13 55
-3 28 -15 118 -27 200 -11 83 -21 182 -23 220 -1 39 -7 99 -13 135 -6 36 -11
72 -11 80 0 8 -3 92 -6 185 -5 135 -3 175 8 197 12 23 12 29 0 39 -16 13 -19
55 -5 64 5 3 6 18 2 33 -4 15 -6 50 -5 77 1 28 4 114 7 191 3 78 8 152 11 165
3 13 8 56 10 94 2 39 6 75 8 81 5 17 -90 117 -107 111 -8 -4 -17 -2 -20 4 -4
5 -10 7 -15 4 -5 -3 -31 -8 -56 -11 -26 -2 -53 -9 -61 -15 -17 -15 -35 -81
-39 -144 -1 -27 -7 -79 -12 -115 -11 -68 -23 -198 -28 -290 -7 -117 -7 -390
-1 -396 4 -4 2 -13 -4 -21 -9 -9 -8 -13 0 -13 6 0 11 -7 11 -15 0 -8 -5 -15
-11 -15 -7 0 -9 -10 -5 -26 4 -14 7 -68 7 -120 0 -52 6 -114 13 -138 7 -24 10
-50 6 -57 -9 -17 15 -244 30 -276 6 -16 6 -23 -1 -23 -6 0 -7 -4 -4 -10 3 -5
2 -26 -4 -45 -5 -21 -6 -33 0 -30 5 4 9 3 10 -2 0 -4 3 -34 5 -66 2 -33 8 -66
12 -75 5 -10 7 -28 6 -42 -1 -14 6 -47 15 -75 21 -57 38 -199 22 -175 -6 8
-11 10 -11 4 0 -6 3 -14 7 -18 8 -7 43 -165 47 -206 1 -14 5 -32 8 -40 3 -8
18 -62 34 -120 15 -58 31 -107 35 -110 13 -11 49 -138 43 -154 -4 -10 -1 -29
7 -44 18 -36 80 -98 107 -106 12 -4 22 -11 22 -16 0 -4 10 -10 23 -14 12 -3
34 -16 49 -29 46 -40 98 -52 154 -36 35 11 50 21 59 42 6 15 13 25 16 23 5 -5
8 15 9 69 1 16 5 34 9 40 5 5 11 26 14 45 4 19 17 89 31 155 13 66 27 145 31
175 11 83 24 143 71 330 13 52 26 118 30 145 4 28 11 58 16 69 6 10 11 30 13
43 1 14 7 28 12 32 6 3 10 27 11 52 0 26 6 57 13 70 7 13 14 39 15 57 2 19 10
44 17 56 8 12 17 39 20 61 15 101 30 172 42 195 7 14 11 30 8 36 -2 6 6 49 17
95 12 46 25 104 29 129 4 25 11 52 16 60 5 8 10 36 11 62 1 27 6 54 12 61 10
13 31 100 58 237 9 47 22 96 29 110 7 14 15 49 18 79 4 29 11 59 18 67 10 12
30 84 91 329 11 44 23 85 27 90 4 6 8 27 10 48 1 21 16 71 33 110 17 40 31 79
32 88 2 15 17 56 41 114 7 17 18 55 25 85 7 30 19 60 27 67 8 6 13 18 11 25
-3 7 10 57 29 111 18 53 33 108 33 121 0 14 9 35 21 48 13 14 22 41 24 68 2
25 8 46 14 48 6 2 11 8 11 14 0 5 15 44 34 86 18 43 39 100 45 129 7 29 19 57
26 63 8 6 11 18 8 26 -3 8 1 32 10 52 43 104 59 146 62 164 2 10 20 49 39 87
19 37 41 91 50 120 9 30 20 59 24 65 5 6 16 29 24 51 29 74 107 233 118 240 5
3 10 13 10 21 0 9 20 49 45 90 25 40 45 78 45 84 0 12 19 47 37 70 7 9 35 60
63 115 29 55 58 107 66 115 12 12 14 12 14 -7 0 -12 5 -25 10 -28 6 -3 10 -16
10 -27 0 -12 9 -47 19 -77 21 -61 25 -95 56 -401 3 -30 8 -62 10 -70 7 -23 14
-78 20 -155 6 -76 21 -135 35 -135 5 0 10 -15 12 -32 2 -21 10 -36 23 -42 26
-11 58 -80 50 -105 -3 -11 1 -36 9 -56 13 -31 18 -35 35 -26 11 6 29 11 40 11
34 0 51 48 53 145 0 34 -15 388 -28 620 -2 39 -5 126 -8 195 -8 188 -17 323
-23 345 -4 11 -7 34 -9 50 -3 36 -7 56 -15 70 -4 6 -12 40 -20 78 -7 37 -16
67 -19 67 -4 0 -18 21 -31 48 -28 55 -43 69 -84 78 -16 3 -41 12 -55 19 -36
19 -97 29 -104 17z"/>
<path d="M3736 2863 c-6 -14 -5 -15 5 -6 7 7 10 15 7 18 -3 3 -9 -2 -12 -12z"/>
<path d="M3635 2680 c-4 -16 -11 -30 -16 -30 -5 0 -9 -10 -9 -22 0 -19 3 -18
25 12 25 34 33 70 16 70 -5 0 -12 -13 -16 -30z"/>
<path d="M3509 2323 c-9 -21 -20 -58 -23 -83 l-7 -45 21 55 c35 90 42 150 9
73z"/>
<path d="M0 25 c0 -21 5 -25 30 -25 17 0 30 1 30 3 0 2 -13 13 -30 25 l-30 23
0 -26z"/>
</g>
</svg>
