<?xml version="1.0" standalone="no"?>
<!DOCTYPE svg PUBLIC "-//W3C//DTD SVG 20010904//EN"
 "http://www.w3.org/TR/2001/REC-SVG-20010904/DTD/svg10.dtd">
<svg version="1.0" xmlns="http://www.w3.org/2000/svg"
 width="640.000000pt" height="640.000000pt" viewBox="0 0 640.000000 640.000000"
 preserveAspectRatio="xMidYMid meet">
<metadata>
Created by potrace 1.11, written by Peter Selinger 2001-2013
</metadata>
<g transform="translate(0.000000,640.000000) scale(0.100000,-0.100000)"
fill="#000000" stroke="none">
<path d="M0 3200 l0 -3200 3200 0 3200 0 0 3200 0 3200 -3200 0 -3200 0 0
-3200z m2455 235 c407 -1119 742 -2035 745 -2035 3 0 319 865 704 1923 384
1057 701 1928 703 1935 4 9 -243 12 -1216 12 l-1221 0 0 100 0 100 1364 0
1364 0 -31 -88 c-321 -888 -1663 -4572 -1667 -4572 -3 0 -373 1014 -823 2253
-451 1238 -832 2287 -847 2330 l-29 77 107 0 107 0 740 -2035z"/>
</g>
</svg>
