<?xml version="1.0" standalone="no"?>
<!DOCTYPE svg PUBLIC "-//W3C//DTD SVG 20010904//EN"
 "http://www.w3.org/TR/2001/REC-SVG-20010904/DTD/svg10.dtd">
<svg version="1.0" xmlns="http://www.w3.org/2000/svg"
 width="640.000000pt" height="640.000000pt" viewBox="0 0 640.000000 640.000000"
 preserveAspectRatio="xMidYMid meet">
<metadata>
Created by potrace 1.11, written by Peter Selinger 2001-2013
</metadata>
<g transform="translate(0.000000,640.000000) scale(0.100000,-0.100000)"
fill="#000000" stroke="none">
<path d="M1500 5533 c0 -15 1691 -4658 1699 -4666 7 -7 1701 4633 1701 4661 0
10 -277 12 -1367 10 l-1368 -3 -3 -102 -3 -103 1222 0 c1210 0 1221 0 1216
-20 -13 -49 -1391 -3830 -1396 -3830 -3 0 -337 913 -743 2028 l-736 2027 -111
3 c-61 1 -111 -1 -111 -5z"/>
</g>
</svg>
